<?xml version="1.0" standalone="no"?>
<!DOCTYPE svg PUBLIC "-//W3C//DTD SVG 20010904//EN"
 "http://www.w3.org/TR/2001/REC-SVG-20010904/DTD/svg10.dtd">
<svg version="1.0" xmlns="http://www.w3.org/2000/svg"
 width="600.000000pt" height="137.000000pt" viewBox="0 0 600.000000 137.000000"
 preserveAspectRatio="xMidYMid meet">
<metadata>
Created by potrace 1.15, written by Peter Selinger 2001-2017
</metadata>
<g transform="translate(0.000000,137.000000) scale(0.100000,-0.100000)"
fill="#000000" stroke="none">
<path d="M590 1309 c-35 -14 -88 -67 -111 -111 -23 -46 -25 -134 -3 -186 8
-20 52 -85 96 -144 61 -80 87 -108 104 -108 33 0 188 196 213 269 35 106 -15
226 -114 272 -44 20 -143 25 -185 8z m157 -140 c48 -46 34 -122 -28 -154 -87
-46 -180 70 -119 148 33 42 105 45 147 6z"/>
<path d="M5470 800 l0 -260 45 0 45 0 0 140 c0 130 1 140 19 140 10 0 32 3 49
6 22 5 35 1 51 -15 19 -19 21 -32 21 -146 l0 -125 41 0 40 0 -3 161 c-3 155
-4 161 -27 180 -26 21 -120 27 -165 9 l-26 -10 0 90 0 90 -45 0 -45 0 0 -260z"/>
<path d="M317 1016 c-201 -83 -317 -253 -317 -465 0 -168 63 -298 193 -396
286 -217 713 -58 786 293 29 139 -9 306 -91 404 l-23 27 -70 -81 c-92 -107
-123 -116 -196 -57 -23 18 -29 19 -48 8 -12 -8 -21 -24 -21 -38 0 -13 -8 -29
-17 -36 -15 -11 -15 -15 -4 -29 7 -9 26 -16 42 -16 15 0 31 -5 34 -11 4 -6 12
-8 19 -6 49 19 54 18 69 -12 13 -26 13 -31 0 -44 -13 -13 -19 -12 -50 9 -38
26 -110 32 -155 15 -36 -14 -51 -71 -31 -120 14 -35 20 -40 62 -48 44 -8 46
-10 52 -48 11 -79 62 -141 95 -114 15 13 44 100 44 135 0 13 5 34 12 48 10 23
15 25 49 20 47 -8 59 11 34 50 l-17 26 36 0 36 0 0 -49 c0 -27 4 -61 9 -74 19
-51 -84 -169 -194 -223 -54 -26 -70 -29 -160 -29 -84 0 -109 4 -152 24 -29 13
-53 27 -53 32 0 5 5 39 12 76 11 65 10 70 -15 120 -25 49 -29 52 -74 58 -67 9
-75 13 -71 32 2 14 15 17 63 18 33 1 76 9 96 17 32 14 37 21 42 63 11 80 9
103 -14 119 -28 19 -18 46 15 46 19 0 27 7 32 25 8 30 -4 115 -18 132 -7 9 0
14 31 19 23 4 43 10 46 14 9 14 -28 90 -44 90 -9 0 -42 -11 -74 -24z"/>
<path d="M3845 1015 c-21 -8 -47 -24 -57 -37 -39 -51 -30 -173 15 -202 12 -8
51 -22 87 -32 71 -19 90 -34 90 -75 0 -44 -23 -54 -122 -53 l-88 0 0 -33 c0
-41 21 -48 136 -48 125 0 156 29 156 146 0 104 -10 114 -147 156 -58 17 -60
19 -60 53 0 49 30 63 118 55 l67 -6 0 34 c0 40 -5 43 -91 51 -44 4 -76 2 -104
-9z"/>
<path d="M1189 996 c-66 -45 -98 -157 -79 -278 15 -98 37 -136 99 -168 26 -13
116 -16 180 -5 39 6 41 9 41 41 l0 33 -79 0 c-91 -1 -114 9 -138 54 -23 45
-23 171 0 214 24 45 44 53 131 53 l76 0 0 34 c0 41 -13 46 -120 46 -64 0 -81
-4 -111 -24z"/>
<path d="M2773 977 c-41 -8 -43 -10 -43 -43 0 -30 -3 -34 -25 -34 -22 0 -25
-4 -25 -40 0 -36 3 -40 25 -40 l25 0 0 -112 c0 -70 5 -122 13 -138 15 -31 69
-45 129 -33 39 8 43 11 46 42 3 31 2 33 -30 30 -71 -5 -68 -10 -68 106 l0 105
40 0 40 0 0 40 c0 40 0 40 -39 40 -40 0 -40 0 -43 43 l-3 43 -42 -9z"/>
<path d="M1608 900 c-75 -14 -114 -60 -125 -149 -18 -151 76 -244 216 -212 81
18 115 71 115 181 1 58 -4 83 -19 110 -34 58 -105 85 -187 70z m98 -91 c15
-16 19 -36 19 -89 0 -83 -18 -110 -75 -110 -57 0 -75 27 -75 110 0 83 18 110
75 110 25 0 43 -7 56 -21z"/>
<path d="M2453 899 c-23 -4 -51 -13 -63 -19 -16 -9 -20 -8 -20 5 0 11 -10 15
-35 15 l-35 0 0 -180 0 -180 45 0 45 0 0 139 0 140 47 7 c75 11 78 7 81 -150
l3 -136 44 0 45 0 0 140 c0 163 -11 205 -57 216 -53 11 -58 12 -100 3z"/>
<path d="M4241 899 c-54 -10 -85 -38 -107 -96 -22 -56 -14 -160 15 -207 35
-55 110 -76 204 -56 55 11 57 13 57 43 l0 32 -79 -3 c-70 -4 -81 -2 -100 17
-42 42 -30 50 87 53 l107 3 3 50 c7 129 -59 187 -187 164z"/>
<path d="M1892 748 c5 -173 11 -192 70 -210 29 -9 50 -8 100 5 38 9 67 12 73
6 5 -5 22 -9 37 -9 l28 0 0 180 0 180 -40 0 -40 0 0 -139 0 -138 -31 -7 c-48
-9 -84 -7 -97 6 -8 8 -12 55 -12 145 l0 133 -46 0 -46 0 4 -152z"/>
<path d="M2990 720 l0 -180 45 0 45 0 0 129 0 129 31 6 c17 3 44 6 60 6 28 0
29 2 29 46 l0 46 -37 -7 c-21 -3 -50 -13 -65 -20 -26 -12 -28 -12 -28 6 0 16
-7 19 -40 19 l-40 0 0 -180z"/>
<path d="M3211 888 c0 -7 26 -87 58 -178 39 -111 63 -166 74 -168 13 -3 14 -8
5 -30 -19 -44 -39 -62 -70 -62 -27 0 -29 -3 -26 -32 3 -32 5 -33 52 -36 52 -3
77 11 101 58 7 14 45 117 85 230 40 113 75 211 77 218 4 8 -9 12 -44 12 l-49
0 -43 -137 -43 -137 -44 137 -45 137 -45 0 c-29 0 -44 -4 -43 -12z"/>
<path d="M4533 893 c-18 -3 -23 -11 -23 -36 l0 -32 85 0 c92 0 105 -6 105 -55
0 -25 0 -25 -78 -22 -71 4 -79 2 -105 -22 -23 -21 -27 -33 -27 -79 0 -39 6
-61 20 -80 27 -34 89 -44 150 -23 27 9 46 12 48 6 2 -6 22 -10 44 -10 l40 0
-4 148 c-3 156 -10 181 -55 201 -23 11 -154 13 -200 4z"/>
<path d="M4890 720 l0 -180 40 0 40 0 0 124 c0 75 4 127 10 131 6 4 35 9 65
12 l55 6 0 43 c0 50 -3 51 -76 29 -43 -13 -50 -13 -57 0 -5 9 -23 15 -42 15
l-35 0 0 -180z"/>
<path d="M5203 880 c-48 -29 -66 -73 -67 -160 0 -145 74 -208 211 -180 51 11
53 13 53 44 l0 33 -50 -5 c-28 -2 -63 1 -79 8 -48 20 -65 97 -37 165 12 27 22
35 50 41 20 3 52 3 71 0 34 -7 35 -6 35 27 0 40 -14 47 -100 47 -37 0 -65 -6
-87 -20z"/>
</g>
</svg>
